<?xml version="1.0" encoding="utf-8"?>
<!-- Generator: Adobe Illustrator 16.0.0, SVG Export Plug-In . SVG Version: 6.00 Build 0)  -->
<!DOCTYPE svg PUBLIC "-//W3C//DTD SVG 1.1//EN" "http://www.w3.org/Graphics/SVG/1.1/DTD/svg11.dtd">
<svg version="1.1" id="Layer_1" xmlns="http://www.w3.org/2000/svg" xmlns:xlink="http://www.w3.org/1999/xlink" x="0px" y="0px"
	 width="50px" height="50px" viewBox="0 0 50 50" enable-background="new 0 0 50 50" xml:space="preserve">
<rect width="50" height="50" fill="#0c0c0c"/>
<line fill="none" x1="5.373" y1="4.394" x2="76.084" y2="-66.316"/>
<g>
	<g>
		<g>
			<path fill="#bff698" d="M6.625,11.875c12.25,0,24.5,0,36.75,0c3.225,0,3.225-5,0-5c-0.25,0-0.5,0-0.75,0c-3.225,0-3.225,5,0,5
				c0.25,0,0.5,0,0.75,0c3.225,0,3.225-5,0-5c-12.25,0-24.5,0-36.75,0C3.401,6.875,3.401,11.875,6.625,11.875L6.625,11.875z"/>
		</g>
	</g>
	<g>
		<g>
			<path fill="#bff698" d="M6.625,22.938c12.25,0,24.5,0,36.75,0c3.225,0,3.225-5,0-5c-0.25,0-0.5,0-0.75,0c-3.225,0-3.225,5,0,5
				c0.25,0,0.5,0,0.75,0c3.225,0,3.225-5,0-5c-12.25,0-24.5,0-36.75,0C3.401,17.938,3.401,22.938,6.625,22.938L6.625,22.938z"/>
		</g>
	</g>
	<g>
		<g>
			<path fill="#bff698" d="M6.625,34c12.25,0,24.5,0,36.75,0c3.225,0,3.225-5,0-5c-0.25,0-0.5,0-0.75,0c-3.225,0-3.225,5,0,5
				c0.25,0,0.5,0,0.75,0c3.225,0,3.225-5,0-5c-12.25,0-24.5,0-36.75,0C3.401,29,3.401,34,6.625,34L6.625,34z"/>
		</g>
	</g>
</g>
</svg>
