<?xml version="1.0" encoding="utf-8"?>
<!-- Generator: Adobe Illustrator 16.0.0, SVG Export Plug-In . SVG Version: 6.00 Build 0)  -->
<!DOCTYPE svg PUBLIC "-//W3C//DTD SVG 1.1//EN" "http://www.w3.org/Graphics/SVG/1.1/DTD/svg11.dtd">
<svg version="1.1" id="Layer_1" xmlns="http://www.w3.org/2000/svg" xmlns:xlink="http://www.w3.org/1999/xlink" x="0px" y="0px"
	 width="50px" height="50px" viewBox="0 0 50 50" enable-background="new 0 0 50 50" xml:space="preserve">
<rect width="50" height="50" fill="#0c0c0c"/>
<line fill="none" x1="5.373" y1="4.394" x2="76.084" y2="-66.316"/>
<path fill="#c8c8c8" stroke="#c8c8c8" stroke-width="4" stroke-miterlimit="10" d="M40.032,21.229
	c-1.034-2.066-2.93-3.483-5.187-4.397c-1.688-0.683-3.562-0.969-5.215-1.694c-2.734-1.199-3.406-4.428-1.385-6.717
	c2.297-2.602,7.308-1.965,10.395-1.943c2.148,0.016,2.146-3.313,0-3.329c-4.515-0.033-9.115-0.161-12.749,2.917
	c-2.694,2.282-2.856,7.306-0.833,9.957c1.679,2.201,4.778,2.563,7.26,3.058c2.789,0.554,5.074,2.523,5.379,5.5
	c0.151,1.474,0.329,2.804-0.848,3.812c-1.257,1.078-3.576,1.396-5.097,1.348c-1.602-0.05-3.209-0.021-4.81-0.007
	c-1.873,0.016-3.746,0.007-5.619-0.002c-1.576-0.007-3.153,0.003-4.729,0.005c-0.737,0.001-1.475-0.008-2.212-0.005
	c-0.003,0-0.044,0.002-0.044,0.003c0-8.369,0-16.739,0-25.108c0-2.147-3.329-2.147-3.329,0c0,8.911,0,17.822,0,26.734
	c0,1.066,0.454,1.84,1.281,1.846c0.167,0.055,2.043,0.01,2.249,0.01l1.873-0.01c13.192-0.426,18.92,0.49,21.516-1.382
	c2.376-1.716,3.293-5.713,2.812-8.435C40.601,22.602,40.36,21.884,40.032,21.229z"/>
</svg>
